<?xml version="1.0" encoding="UTF-8"?>
<svg width="21px" height="24px" viewBox="0 0 21 24" version="1.1" xmlns="http://www.w3.org/2000/svg" xmlns:xlink="http://www.w3.org/1999/xlink">
    <!-- Generator: Sketch 52.2 (67145) - http://www.bohemiancoding.com/sketch -->
    <title>Down Arrows</title>
    <desc>Created with Sketch.</desc>
    <g id="GoSurf-Homepage" stroke="none" stroke-width="1" fill="none" fill-rule="evenodd">
        <g id="Go-Surf" transform="translate(-209.000000, -959.000000)" fill="#FFFFFF" fill-rule="nonzero">
            <g id="Hero" transform="translate(-14.000000, -770.000000)">
                <g id="Down-Arrows" transform="translate(223.000000, 1729.000000)">
                    <path d="M10.3067017,23.8878862 C10.7048721,23.8485226 11.0818801,23.6880375 11.3846647,23.4276241 L19.5240372,16.4510191 C19.934339,16.1224753 20.1932486,15.6410353 20.2416973,15.1186814 C20.2901459,14.5963275 20.1251182,14.0770355 19.7844583,13.6773148 C19.4422907,13.2791444 18.954785,13.0353896 18.4309194,13.0035685 C17.9070539,12.9717742 17.3922968,13.153457 17.0047076,13.5077445 L10.1249999,19.406464 L3.24529227,13.5077445 C2.85770311,13.1534648 2.34294594,12.9717862 1.81908043,13.0035685 C1.29521491,13.0353629 0.807705261,13.2791212 0.465541547,13.6773148 C0.124885555,14.0769967 -0.0401460352,14.5963275 0.00830261029,15.1186814 C0.0567512558,15.6410353 0.31564919,16.1224598 0.725962706,16.4510191 L8.86533515,23.4276241 C9.2635055,23.7697917 9.78434782,23.9348232 10.3067017,23.8878862 Z" id="Shape"></path>
                    <path d="M10.3067017,10.8878862 C10.7048721,10.8485226 11.0818801,10.6880375 11.3846647,10.4276241 L19.5240372,3.45101912 C19.934339,3.12247529 20.1932486,2.64103528 20.2416973,2.11868137 C20.2901459,1.59632745 20.1251182,1.07703549 19.7844583,0.677314784 C19.4422907,0.279144436 18.954785,0.0353896103 18.4309194,0.00356853994 C17.9070539,-0.0282257868 17.3922968,0.153457021 17.0047076,0.507744524 L10.1249999,6.40646401 L3.24529227,0.507744524 C2.85770311,0.153464773 2.34294594,-0.0282137715 1.81908043,0.00356853994 C1.29521491,0.0353628667 0.807705261,0.27912118 0.465541547,0.677314784 C0.124885555,1.07699673 -0.0401460352,1.59632745 0.00830261029,2.11868137 C0.0567512558,2.64103528 0.31564919,3.12245978 0.725962706,3.45101912 L8.86533515,10.4276241 C9.2635055,10.7697917 9.78434782,10.9348232 10.3067017,10.8878862 Z" id="Shape-Copy-2"></path>
                </g>
            </g>
        </g>
    </g>
</svg>