<?xml version="1.0" encoding="UTF-8"?>
<svg width="25px" height="21px" viewBox="0 0 25 21" version="1.1" xmlns="http://www.w3.org/2000/svg" xmlns:xlink="http://www.w3.org/1999/xlink">
    <g id="GoSurf-Homepage" stroke="none" stroke-width="1" fill="none" fill-rule="evenodd">
        <g id="Go-Surf" transform="translate(-1336.000000, -888.000000)" fill="#FFFFFF" fill-rule="nonzero">
            <g id="Hero" transform="translate(-14.000000, -770.000000)">
                <g id="Page-Title" transform="translate(909.000000, 1378.000000)">
                    <g id="Heading" transform="translate(0.000000, 14.000000)">
                        <path d="M449.777891,266.562669 L441.564298,274.713452 C440.811901,275.464593 440.811901,276.683813 441.564298,277.432441 L449.777891,285.588056 C450.536602,286.339197 451.764614,286.335429 452.523293,285.588056 C453.274434,284.835659 453.274434,283.621464 452.523293,282.869067 L447.71818,278.10164 L463.132356,278.10164 C464.245862,278.10164 465.146748,277.20201 465.146748,276.088504 C465.146748,274.976255 464.245862,274.075369 463.132356,274.075369 L447.68919,274.075369 L452.523293,269.282818 C453.274434,268.531676 453.274434,267.316226 452.523293,266.565085 C451.765838,265.812687 450.537826,265.811431 449.777891,266.562568 L449.777891,266.562669 Z" id="Shape-Copy" transform="translate(453.073374, 276.075000) rotate(-180.000000) translate(-453.073374, -276.075000) "></path>
                    </g>
                </g>
            </g>
        </g>
    </g>
</svg>