<?xml version="1.0" encoding="UTF-8"?>
<svg width="11px" height="14px" viewBox="0 0 11 14" version="1.1" xmlns="http://www.w3.org/2000/svg" xmlns:xlink="http://www.w3.org/1999/xlink">
    <g id="GoSurf-Homepage" stroke="none" stroke-width="1" fill="none" fill-rule="evenodd">
        <g id="Go-Surf" transform="translate(-41.000000, -971.000000)" fill="#FFFFFF" fill-rule="nonzero">
            <g id="Hero" transform="translate(-14.000000, -770.000000)">
                <g id="Date" transform="translate(55.000000, 1620.000000)">
                    <g id="POI" transform="translate(0.000000, 121.000000)">
                        <path d="M8.78648571,1.45985714 C7.84853143,0.708525714 6.65892857,0.2948 5.43368571,0.2948 C4.20847429,0.2948 3.01761429,0.708525714 2.08088571,1.45985714 C0.8569,2.44077429 0.135017143,3.83541714 0.0490914286,5.38591429 C-0.035618,6.91560571 0.537711429,8.41459143 1.62052,9.4974 L5.15120571,13.0280857 C5.28993457,13.1655857 5.53054857,13.1668146 5.66927429,13.0293133 L9.25056,9.49485617 C10.3309171,8.41449903 10.9030114,6.91673903 10.8195371,5.38588474 C10.7323731,3.83532474 10.0117286,2.44068189 8.78648571,1.4598276 L8.78648571,1.45985714 Z M5.43368571,8.09065714 C4.10655143,8.09065714 3.02745143,7.01152571 3.02745143,5.68442286 C3.02745143,4.35728857 4.10658286,3.27818857 5.43368571,3.27818857 C6.76082,3.27818857 7.83992,4.35732 7.83992,5.68442286 C7.84114791,7.01155714 6.76078857,8.09065714 5.43368571,8.09065714 Z" id="Shape"></path>
                        <path d="M5.43368571,4.51157143 C4.78669714,4.51157143 4.26124286,5.03702571 4.26124286,5.68401429 C4.26124286,6.33100286 4.78669714,6.85645714 5.43368571,6.85645714 C6.08067429,6.85645714 6.60612857,6.33100286 6.60612857,5.68401429 C6.60612857,5.03702571 6.08067429,4.51157143 5.43368571,4.51157143 Z" id="Shape"></path>
                    </g>
                </g>
            </g>
        </g>
    </g>
</svg>