<?xml version="1.0" encoding="UTF-8"?>
<svg width="767px" height="496px" viewBox="0 0 767 496" version="1.1" xmlns="http://www.w3.org/2000/svg" xmlns:xlink="http://www.w3.org/1999/xlink">
    <!-- Generator: Sketch 52.2 (67145) - http://www.bohemiancoding.com/sketch -->
    <title>Map</title>
    <desc>Created with Sketch.</desc>
    <g id="GoSurf-Homepage" stroke="none" stroke-width="1" fill="none" fill-rule="evenodd">
        <g id="Go-Surf" transform="translate(-673.000000, 0.000000)">
            <g id="Hero" transform="translate(-14.000000, -770.000000)">
                <g id="Map" transform="translate(454.000000, 0.000000)">
                    <g id="np_california_725261_000000-copy" opacity="0.298270089" stroke="#FFFFFF" stroke-linecap="round" stroke-linejoin="round" stroke-width="2">
                        <path d="M1007.07858,933.448134 L442.181739,413.142383 L442.181739,22.8104231 L27.1095946,0 C23.9043186,7.5440152 3.36709109,29.2855419 6.57175924,41.4039593 C10.429973,55.8980063 29.8386529,51.2647532 35.4775924,60.5905665 C42.0660802,71.5800201 30.7290917,116.25104 27.345728,129.14045 C20.8759148,153.555206 6.09675722,173.334884 1.82234683,197.749641 C-5.35981745,238.73693 9.18244694,235.470477 36.7242068,261.072896 C83.1409911,304.257589 45.9244459,349.048136 57.6176099,399.776996 C67.1146113,441.121648 108.605111,462.446352 123.800313,503.789484 C135.55289,535.629793 151.697185,543.767032 176.746476,567.053432 C176.152921,552.915684 163.510087,511.215037 187.252591,514.89816 C210.81731,518.521672 201.735594,553.330682 206.246593,567.885252 C210.045394,580.003366 236.933304,604.238984 214.615807,615.406967 C207.196294,619.089938 186.065541,604.417513 177.577501,600.49701 C183.572465,619.20916 179.773664,638.632996 189.270665,656.513326 C200.607654,677.838031 212.835385,669.641181 227.852803,681.224618 C243.344312,693.164506 241.682869,706.886344 234.797467,724.944596 C227.615302,743.77536 220.195789,740.86475 231.592191,763.556559 C239.84273,779.951171 253.850123,800.742111 265.899918,813.216371 C272.903995,820.463395 280.501596,822.126731 287.505976,831.393237 C293.322852,839.115478 291.067428,849.21426 298.012091,856.163836 C309.883343,868.103724 330.005589,868.281949 339.384068,883.904352 C349.83077,901.308704 337.959518,914.436863 368.70625,912.83253 C370.308888,947.642756 376.897376,979.18501 376.5412,1013.99372 C393.695064,1020.82498 421.414152,1012.68686 439.399193,1009.06332 C457.265712,1033.18002 480.354822,1016.42926 500.774135,1029.55772 C509.677611,1035.26033 507.837472,1049.51684 513.238911,1054.50624 C524.33855,1064.72349 532.52922,1058.30798 546.300632,1061.87219 C556.509984,1064.48596 564.404196,1071.97051 574.138242,1074.70305 C583.338481,1077.25736 598.474878,1071.25776 605.300563,1079.39576 C613.491689,1089.13764 599.78045,1106.95835 612.126552,1114.79906 C622.395166,1121.33333 637.115062,1105.76993 647.087673,1108.02725 C658.721424,1110.70033 692.079147,1141.17384 700.270881,1151.21194 C709.589795,1162.67662 718.968577,1184.062 724.25043,1198.79297 C732.500969,1221.84062 731.373181,1233.12722 748.407762,1249.9978 C759.2699,1260.74957 748.941965,1261.52178 766.629849,1264.67008 C778.204338,1266.74917 793.517759,1258.37349 805.211987,1257.0666 C829.548622,1254.39352 854.122303,1259.02693 878.101852,1254.45283 C900.420565,1250.17588 921.728797,1243.16639 944.640123,1239.89933 C964.465304,1237.04802 999.367164,1239.2459 1016.93586,1229.801 C1035.98912,1219.64321 1037.71074,1196.65441 1010.16928,1200.93213 C1007.97312,1186.25986 1017.76688,1166.00329 1006.84533,1155.84657 C1022.04053,1135.05563 1027.56095,1120.38396 1029.93444,1094.95946 C1031.00285,1083.79179 1031.47766,1071.43584 1036.99778,1062.05011 C1042.39922,1052.7833 1057.59487,1047.25892 1060.5625,1039.29899 C1065.13291,1026.94334 1057.83207,1021.41866 1052.25255,1014.52839 C1048.69109,1010.07321 1038.54131,1012.21176 1035.63203,1008.29111 C1030.23059,1001.10339 1035.57268,993.678144 1032.60484,986.431121 C1023.93887,965.462259 1013.61084,957.204886 1007.08146,933.444028 C1007.25952,937.423991 1007.43759,941.463261 1007.20017,945.383916" id="Shape"></path>
                    </g>
                    <path d="M728.11416,853.939404 C719.545933,877.320835 739.613767,885.525562 755.675053,900.80743 C760.434282,905.335705 760.888315,912.817054 755.878946,917.342398 C745.10666,927.073823 704.263591,912.916794 706.854356,925.745157 C709.530102,938.994314 744.060991,957.531458 745.617621,958.799408 C759.2844,969.931656 763.735514,998.174145 756.208312,1013.65849 C750.85247,1024.67608 715.342419,1020.96235 704.172374,1017.29328 C631.024033,993.265902 663.985216,996.131099 581.816751,988.669785 C575.526549,988.098603 568.9349,987.806418 562.893879,989.650042 C556.671448,991.54903 556.869393,999.338721 558.957168,1003.55008 C565.875772,1017.50595 596.848936,1041.17783 588.513864,1059.52273 C585.956373,1065.15158 579.963007,1068.70711 577.26444,1074.26971 C575.150573,1078.62705 575.384961,1083.77166 574.445222,1088.52264" id="Path-3" stroke="#FFFFFF" stroke-width="2"></path>
                    <circle id="Oval" fill="#4AF6CD" cx="572.5" cy="1089.5" r="6.5"></circle>
                    <circle id="Oval-Copy-2" fill="#4AF6CD" cx="660" cy="1130" r="3"></circle>
                    <circle id="Oval-Copy-6" fill="#4AF6CD" cx="724" cy="1238" r="3"></circle>
                    <circle id="Oval-Copy-7" fill="#4AF6CD" cx="364" cy="995" r="3"></circle>
                    <circle id="Oval-Copy" fill="#4AF6CD" cx="728.5" cy="854.5" r="6.5"></circle>
                    <text id="West-Shore-|-Malibu," font-family="FiraSans-Regular, Fira Sans" font-size="16" font-weight="normal" fill="#FFFFFF">
                        <tspan x="383.776" y="1092">West Shore </tspan>
                        <tspan x="469.776" y="1092" font-family="FiraSans-Thin, Fira Sans" font-style="condensed" font-weight="300">|</tspan>
                        <tspan x="476.384" y="1092"> Malibu, CA</tspan>
                    </text>
                    <text id="Current-Location" font-family="FiraSans-Regular, Fira Sans" font-size="16" font-weight="normal" fill="#FFFFFF">
                        <tspan x="590.592" y="857">Current Location</tspan>
                    </text>
                </g>
            </g>
        </g>
    </g>
</svg>