<?xml version="1.0" encoding="UTF-8"?>
<svg width="24px" height="24px" viewBox="0 0 24 24" version="1.1" xmlns="http://www.w3.org/2000/svg" xmlns:xlink="http://www.w3.org/1999/xlink">
    <g id="GoSurf-Homepage" stroke="none" stroke-width="1" fill="none" fill-rule="evenodd">
        <g id="Go-Surf" transform="translate(-72.000000, -789.000000)" fill="#FFFFFF" fill-rule="nonzero">
            <g id="Hero" transform="translate(-14.000000, -770.000000)">
                <g id="Search" transform="translate(86.000000, 1559.000000)">
                    <path d="M23.3303563,20.0982663 C24.2232146,20.9911246 24.2232146,22.4375837 23.3303563,23.3303848 C22.437498,24.223186 20.9910389,24.2232431 20.0982377,23.3303848 L15.3817173,18.6138644 C15.046894,18.2790411 14.4420018,18.1942181 14.0201155,18.4196698 C14.0201155,18.4196698 14.0781499,18.4062772 13.7098465,18.5714529 C12.4911021,19.1227908 11.1384146,19.4285969 9.71429844,19.4285969 C4.34823427,19.4285969 0,15.0803626 0,9.71429844 C0,4.34823427 4.34823427,0 9.71429844,0 C15.0803626,0 19.4285969,4.34823427 19.4285969,9.71429844 C19.4285969,11.1428717 19.1205622,12.5000164 18.5669957,13.7209894 C18.4018184,14.0848299 18.4174413,14.0223269 18.4174413,14.0223269 C18.1919953,14.4375046 18.2790468,15.0468997 18.6138701,15.3817001 L23.3303563,20.0982663 Z M9.71433844,15.1428884 C12.7121138,15.1428884 15.142917,12.7120852 15.142917,9.71430986 C15.142917,6.71653451 12.7121138,4.28573133 9.71433844,4.28573133 C6.71656308,4.28573133 4.2857599,6.71653451 4.2857599,9.71430986 C4.2857599,12.7120852 6.71656308,15.1428884 9.71433844,15.1428884 Z" id="Shape"></path>
                </g>
            </g>
        </g>
    </g>
</svg>