<?xml version="1.0" encoding="UTF-8"?>
<svg width="17px" height="44px" viewBox="0 0 17 44" version="1.1" xmlns="http://www.w3.org/2000/svg" xmlns:xlink="http://www.w3.org/1999/xlink">
    <g id="GoSurf-Homepage" stroke="none" stroke-width="1" fill="none" fill-rule="evenodd">
        <g id="Go-Surf" transform="translate(-76.000000, -687.000000)" fill="#FFFFFF" fill-rule="nonzero" stroke="#000000" stroke-width="0.25">
            <g id="Hero" transform="translate(-14.000000, -770.000000)">
                <g id="Navigation" transform="translate(68.000000, 1168.000000)">
                    <g id="np_surfboard_1123390_000000" transform="translate(23.000000, 289.444444)">
                        <path d="M7.63911111,0 C5.42208889,0 0,7.05733333 0,20.1386667 C0,33.3555556 4.74311111,42.3155556 4.94444444,42.6906667 L5.14062667,43.0552489 L10.1370711,43.0552489 L10.3332533,42.6906667 C10.53464,42.3156667 15.2776978,33.3555556 15.2776978,20.1386667 C15.2776978,7.05688889 9.85592,3.15796771e-15 7.63858667,3.15796771e-15 L7.63911111,0 Z M6.94466667,1.84373333 L6.94466667,23.6112889 L8.33355556,23.6112889 L8.33355556,1.84373333 C10.1113333,3.43053333 13.8891111,9.20328889 13.8891111,20.1388444 C13.8891111,23.7881333 13.5054311,27.1179556 12.9585333,30.0259556 C12.1547111,28.8818667 10.6772889,27.3245778 7.98475556,25.7863556 C1.43808889,22.0450222 1.51764444,16.9076889 1.52297778,16.6908 L1.52124178,16.6908 C2.20355289,7.97391111 5.36497511,3.25524444 6.94479733,1.84368889 L6.94466667,1.84373333 Z M1.41177778,21.2535111 C2.40484444,23.0989778 4.16697778,25.2048889 7.29533333,26.9930667 C11.7571111,29.5434222 12.5073333,32.0659556 12.5211111,32.1112889 C12.1808356,33.5974222 11.8075556,34.9463556 11.4343111,36.1338667 C10.8492444,35.0974222 9.818,33.8231111 7.9968,32.7380444 C2.51235556,29.4724 1.64613333,24.7344889 1.5248,23.7798222 C1.46577333,22.9568889 1.43104889,22.1131556 1.41195111,21.2537778 L1.41177778,21.2535111 Z M9.29355556,41.6668444 L8.33346667,41.6668444 L8.33346667,36.8055111 L6.94457778,36.8055111 L6.94457778,41.6668444 L5.98448889,41.6668444 C5.35951111,40.3786667 3.29697778,35.7659556 2.15982222,29.1041778 C3.22404444,30.7326667 4.83515556,32.4704889 7.28471111,33.9304 C9.97915556,35.5345778 10.6284444,37.5467111 10.7638667,38.1248444 C10.1284444,39.8783111 9.56942222,41.0970667 9.29337778,41.6665333 L9.29355556,41.6668444 Z" id="Shape"></path>
                    </g>
                </g>
            </g>
        </g>
    </g>
</svg>