<?xml version="1.0" encoding="UTF-8"?>
<svg width="39px" height="40px" viewBox="0 0 39 40" version="1.1" xmlns="http://www.w3.org/2000/svg" xmlns:xlink="http://www.w3.org/1999/xlink">
    <g id="GoSurf-Homepage" stroke="none" stroke-width="1" fill="none" fill-rule="evenodd">
        <g id="Go-Surf" transform="translate(-64.000000, -590.000000)" fill="#FFFFFF" fill-rule="nonzero">
            <g id="Hero" transform="translate(-14.000000, -770.000000)">
                <g id="Navigation" transform="translate(68.000000, 1168.000000)">
                    <g id="Camp" transform="translate(10.000000, 192.000000)">
                        <path d="M38.037037,32.1881035 L29.7502593,32.1881035 C29.4850689,32.1881035 29.2687778,32.4061172 29.2687778,32.6734196 C29.2687778,32.940722 29.4850689,33.1587357 29.7502593,33.1587357 L38.037037,33.1587357 C38.3022274,33.1587357 38.5185185,32.940722 38.5185185,32.6734196 C38.5185185,32.4061172 38.3022274,32.1881035 38.037037,32.1881035 Z" id="Shape"></path>
                        <path d="M38.037037,38.3399701 L28.7458889,38.3399701 C28.4806985,38.3399701 28.2644074,38.5579838 28.2644074,38.8252862 C28.2644074,39.0925886 28.4806985,39.3106023 28.7458889,39.3106023 L38.037037,39.3106023 C38.3022274,39.3106023 38.5185185,39.0925886 38.5185185,38.8252862 C38.5185185,38.5579838 38.3022274,38.3399701 38.037037,38.3399701 Z" id="Shape"></path>
                        <path d="M0.481481481,35.6916003 L7.9742963,35.6916003 C8.23948667,35.6916003 8.45577778,35.4735866 8.45577778,35.2062842 C8.45577778,34.9389818 8.23948667,34.7209681 7.9742963,34.7209681 L0.481481481,34.7209681 C0.216291111,34.7209681 -1.77635684e-15,34.9389818 -1.77635684e-15,35.2062842 C-1.77635684e-15,35.4754842 0.216291111,35.6916003 0.481481481,35.6916003 Z" id="Shape"></path>
                        <path d="M4.29962963,0.627513688 C4.15292704,0.479642733 3.93099296,0.441729841 3.74481852,0.534619338 C1.93926296,1.43512332 0.816448148,3.24743915 0.816448148,5.2664511 C0.816448148,8.18024029 3.17681481,10.5520285 6.07904074,10.5520285 C8.08773333,10.5520285 9.89328889,9.4259496 10.7904333,7.61169251 C10.8825937,7.42590866 10.8468581,7.20030948 10.7001556,7.05246279 C10.553453,6.90459184 10.3315237,6.86667894 10.1453444,6.95956844 C9.54349259,7.25910067 8.90215926,7.41265468 8.23824444,7.41265468 C5.86844074,7.41265468 3.93875926,5.47706857 3.93875926,3.09979629 C3.93875926,2.43437942 4.08922222,1.79172387 4.38826556,1.18886424 C4.4823037,1.0011828 4.44469037,0.775588477 4.29987037,0.627741787 L4.29962963,0.627513688 Z M8.2380037,8.38286461 C8.53892963,8.38286461 8.83422222,8.35821929 9.12763704,8.30703397 C8.33584074,9.11275572 7.25062963,9.58098868 6.0788963,9.58098868 C3.70909259,9.58098868 1.77941111,7.64540256 1.77941111,5.26623756 C1.77941111,4.09085055 2.24772889,2.99888937 3.05268889,2.20457255 C3.00190704,2.49841687 2.97745741,2.79607578 2.97745741,3.09939833 C2.97557674,6.01318753 5.3359463,8.38303447 8.23812407,8.38303447 L8.2380037,8.38286461 Z" id="Shape"></path>
                        <path d="M38.038963,24.4099428 L38.0370823,24.4099428 C37.7718919,24.4099428 37.5574834,24.6260589 37.5556008,24.8933612 L37.5443159,27.484852 L19.6770196,0.923503111 C19.4983466,0.656200722 19.0601455,0.656200722 18.8795899,0.923503111 L1.02529363,27.4659247 L1.03657859,24.7151532 C1.03845926,24.4478508 0.822170074,24.2279444 0.556979704,24.2279444 L0.555099037,24.2279444 C0.289908667,24.2279444 0.0755001481,24.4440605 0.0736175556,24.7113629 L0.0566905926,29.0526608 C0.0548094444,29.2668841 0.193989852,29.4545607 0.395229852,29.5190204 C0.442249889,29.5341865 0.489268,29.539874 0.538172074,29.539874 C0.694278,29.539874 0.844740963,29.4621457 0.936896519,29.3275482 L3.7467743,25.1511607 L3.7467743,29.0564506 C3.7467743,29.323753 3.96306541,29.5417667 4.22825578,29.5417667 L14.9522928,29.5417667 C15.4995928,31.3313697 17.1603187,32.6356567 19.1200928,32.6356567 C19.133258,32.6356567 19.1445429,32.633761 19.1577081,32.633761 C19.1633506,32.633761 19.1708737,32.6356567 19.1765162,32.6356567 C19.1953243,32.6356567 19.2141319,32.6299693 19.232941,32.6299693 C21.1419188,32.5806806 22.7500188,31.29535 23.2860521,29.5417575 L34.3302743,29.5417575 C34.5954647,29.5417575 34.8117558,29.3237438 34.8117558,29.0564414 L34.8117558,25.1511514 L37.6216336,29.3275389 C37.7401214,29.5038446 37.9582951,29.5815728 38.1595447,29.5190107 C38.3607895,29.4564486 38.4999666,29.268772 38.4999666,29.0564462 L38.5187742,24.8971419 C38.5206549,24.6279419 38.3062434,24.4118258 38.0391753,24.4099331 L38.038963,24.4099428 Z M19.2327778,31.6595943 C19.206447,31.66149 19.1819959,31.6633861 19.1575463,31.6633861 C18.3224648,31.6520113 17.6454056,30.9695297 17.6454056,30.1316315 C17.6454056,29.5799727 18.4503944,28.3098035 19.1763722,27.3524204 C19.90235,28.3098035 20.7073389,29.5799242 20.7073389,30.1316315 C20.7073389,30.9562806 20.0509352,31.6292684 19.2328019,31.6596006 L19.2327778,31.6595943 Z M21.6270407,30.5467646 C21.6496102,30.4102694 21.6684178,30.2737743 21.6684178,30.1296936 C21.6684178,28.9012616 19.900466,26.6926852 19.5449882,26.2623069 C19.36255,26.0405029 18.9863734,26.0405029 18.80394,26.2623069 C18.4503497,26.6926463 16.6805104,28.901213 16.6805104,30.1296936 C16.6805104,30.3249557 16.7087223,30.5126371 16.7500989,30.6965428 C16.1162767,30.0766486 15.7194397,29.2121551 15.7194397,28.2567133 C15.7194397,26.8045505 17.9105656,23.7087678 19.1161471,22.1693937 C20.3236063,23.7087678 22.5128545,26.8026578 22.5128545,28.2567133 C22.5166163,29.1382414 22.1780756,29.9401777 21.6270249,30.5468228 L21.6270407,30.5467646 Z M19.4904667,21.0889248 C19.3080285,20.8671208 18.9318519,20.8671208 18.7494185,21.0889248 C18.3412859,21.5837046 14.7602481,25.9969263 14.7602481,28.2570433 C14.7602481,28.3632062 14.769652,28.4674715 14.7752944,28.5717417 L9.92677593,28.5717417 L9.92677593,25.3716645 C10.5549648,24.8598016 12.636987,23.085389 14.7454426,20.4520154 C16.4569648,18.3155085 18.4111056,15.2955321 19.2969352,11.8526999 C20.1827648,15.2973278 22.1369056,18.3151687 23.8484278,20.4520154 C25.956787,23.0852434 28.0388093,24.859656 28.6670944,25.3716645 L28.6670944,28.5717417 L23.4627611,28.5717417 C23.4702843,28.4674764 23.4778074,28.3632062 23.4778074,28.2570433 C23.4796881,25.9973146 19.8986667,21.5839472 19.490563,21.0889248 L19.4904667,21.0889248 Z M33.8482444,28.5715281 L29.6277704,28.5715281 L29.6277704,25.1364124 C29.6277704,24.9866487 29.5581819,24.8444657 29.4396941,24.7515713 C29.3437733,24.6757407 19.7763607,17.1267704 19.7763607,8.19016015 C19.7763607,7.92285777 19.5600696,7.70484408 19.2948793,7.70484408 C19.0296889,7.70484408 18.8133978,7.92285777 18.8133978,8.19016015 C18.8133978,17.1267704 9.24587926,24.675862 9.15006444,24.7515713 C9.03157667,24.8425681 8.96198815,24.9847511 8.96198815,25.1364124 L8.96198815,28.5715281 L4.7095437,28.5715281 L4.7095437,23.7202601 L19.2801363,2.06108885 L33.8507289,23.7202601 L33.8482444,28.5715281 Z" id="Shape"></path>
                        <path d="M26.5734444,34.8063838 C26.6298693,34.6907427 26.6392726,34.5542475 26.5960139,34.4329185 L25.8869361,32.3722179 C25.8004187,32.1219792 25.531468,31.9873768 25.2813287,32.0707929 L19.3644028,34.0442822 L13.1634028,32.2774405 C12.9094983,32.2054002 12.6461954,32.3513736 12.5709398,32.607305 L11.9559435,34.6964451 C11.9202084,34.8215645 11.9333741,34.9542693 11.9954399,35.0680128 C12.0575077,35.1817612 12.1628318,35.2651725 12.2869625,35.3011926 L14.0718144,35.80927 L12.5860107,36.3040498 C12.4637577,36.3457564 12.3621988,36.4329594 12.305774,36.5504981 C12.2493492,36.6661392 12.2399459,36.8026344 12.2832046,36.9239634 L12.9922823,38.984664 C13.0581105,39.185614 13.244309,39.3107382 13.4436712,39.3107382 C13.4944531,39.3107382 13.5452349,39.3031551 13.5941342,39.2860933 L19.2178379,37.4111717 L25.3456527,39.1571934 C25.3889109,39.1685677 25.4340479,39.1761508 25.477309,39.1761508 C25.6860746,39.1761508 25.8760383,39.0396557 25.9381012,38.8292275 L26.5530975,36.7400873 C26.5888321,36.614968 26.5756665,36.4822632 26.5136006,36.3685196 C26.4515348,36.2547761 26.3462088,36.17136 26.222078,36.1353398 L24.5105558,35.648131 L26.2916521,35.0547351 C26.4157829,35.013028 26.515464,34.9239278 26.5737714,34.8063891 L26.5734444,34.8063838 Z M13.0168519,34.4992709 L13.3591563,33.340967 L17.7338489,34.5883749 L15.7025748,35.2651482 L13.0168519,34.4992709 Z M25.4901111,36.935315 L25.1478067,38.0936188 L20.8483215,36.8670795 L22.8795956,36.1903062 L25.4901111,36.935315 Z M13.7429259,38.2149479 L13.3498396,37.0717858 L25.1331359,33.1437346 L25.5262222,34.2868966 L13.7429259,38.2149479 Z" id="Shape"></path>
                    </g>
                </g>
            </g>
        </g>
    </g>
</svg>