<?xml version="1.0" encoding="UTF-8"?>
<svg width="61px" height="48px" viewBox="0 0 61 48" version="1.1" xmlns="http://www.w3.org/2000/svg" xmlns:xlink="http://www.w3.org/1999/xlink">
    <g id="GoSurf-Homepage" stroke="none" stroke-width="1" fill="none" fill-rule="evenodd">
        <g id="Go-Surf" transform="translate(-53.000000, -397.000000)" fill="#FFFFFF" fill-rule="nonzero" stroke="#222532">
            <g id="Hero" transform="translate(-14.000000, -770.000000)">
                <g id="Navigation" transform="translate(68.000000, 1168.000000)">
                    <g id="Surf">
                        <path d="M58.5623163,42.9441693 C58.5764264,42.9180635 58.5881848,42.8895845 58.5975917,42.8611049 C58.6093502,42.8326259 58.6164055,42.8017738 58.6258124,42.77092 C58.6328677,42.7424404 58.639923,42.713962 58.6446261,42.68548 C58.6516815,42.6522548 58.654033,42.6166566 58.6563852,42.5834296 C58.6587368,42.5644436 58.6610883,42.5478307 58.6610883,42.5288447 C58.6610883,42.5193517 58.6587368,42.5098587 58.6587368,42.5003657 C58.6587368,42.4671406 58.654033,42.4339118 58.6493299,42.4006908 C58.6446261,42.3698388 58.639923,42.3389879 58.6352193,42.3081364 C58.6328677,42.2986435 58.6328677,42.2867768 58.6305161,42.2772844 C58.5646649,42.0328421 56.8667171,36.443818 42.9870875,35.6227729 C48.2949202,13.634877 38.1848488,1.26026835 37.7239263,0.714687117 C37.5451924,0.501096316 37.2841536,0.380059908 37.0066549,0.380059908 L36.8679025,0.375313716 C36.7997034,0.375313716 36.7338521,0.382433005 36.6703609,0.396672796 C36.6538987,0.401418989 36.6374371,0.408538884 36.6209749,0.410911981 C36.5739405,0.422778069 36.52926,0.43701786 36.4845765,0.456003844 C36.4634112,0.465496836 36.4445974,0.477362924 36.4257836,0.48922962 C36.3881561,0.5105887 36.3528825,0.529574684 36.3176029,0.553308076 C36.296437,0.567547867 36.2776232,0.584160755 36.2588094,0.603146739 C36.2282372,0.629252011 36.2000165,0.655357891 36.1717965,0.686211178 C36.1647411,0.69570417 36.1553349,0.70045097 36.1459274,0.709943962 C35.6849929,1.25816197 25.5253253,13.696357 30.9297855,35.7911819 C25.9441651,36.2990585 23.4181223,37.4429929 21.6872549,38.5987381 C21.6402199,38.0956126 21.510875,37.6897803 21.2474822,37.3765268 C20.9840893,37.0608856 20.6101618,36.8805157 20.1962587,36.8662808 C17.6328893,36.7855918 15.1565148,40.1057453 13.7453913,42.3912325 C13.3855756,40.6587387 13.2021458,38.4872281 13.9946724,37.2626473 C14.3874077,36.6574714 15.0153122,36.3323645 15.9160254,36.2730067 C18.3335805,36.1139984 19.2178581,35.1599724 19.5353142,34.388625 C19.8998319,33.5010531 19.6693646,32.4876572 18.9003418,31.6071936 C17.7902989,30.3327328 15.520906,29.364478 12.9457969,30.066929 C9.48875808,31.0091199 6.41726624,35.2738276 5.44617441,38.8527311 C4.69597135,41.615207 5.09341461,43.9789468 6.56795706,45.5048123 C6.93247471,45.8821565 7.52508155,45.889277 7.8990091,45.5237983 C8.27058267,45.1583196 8.27998655,44.557913 7.91782288,44.1805627 C6.58201471,42.7969857 6.93481063,40.5613785 7.2617188,39.3533839 C8.19536369,35.9169512 10.9656545,32.5731093 13.4374535,31.8987272 C15.2200361,31.4098365 16.7863055,32.05536 17.4871412,32.8598736 C17.7505341,33.1612738 17.8704727,33.4769029 17.7952176,33.6620238 C17.6823349,33.9396931 17.0896859,34.2909611 15.7939135,34.3763829 C14.3028992,34.4736883 13.1364451,35.112067 12.4168257,36.2227926 C10.4954727,39.1940839 12.3439246,44.5644745 12.56028,45.1677731 C12.6872745,45.5237619 13.0141646,45.7682041 13.3880861,45.7895413 C13.4068999,45.7919144 13.4257137,45.7919144 13.4445275,45.7919144 C13.7972873,45.7919144 14.1241713,45.5925646 14.2840734,45.2697968 C15.5774979,42.6853336 18.0703683,39.1323117 19.8270632,38.7860074 C19.8764492,39.3413459 19.7235844,40.4923765 19.6271676,41.2280606 C19.3567188,43.2643301 19.2250224,44.5506381 19.8811566,45.3052778 C20.1516053,45.6185496 20.5349127,45.7917929 20.9559198,45.7917929 C22.2846239,45.7917929 22.9454841,44.8994213 23.4252504,44.2491589 C23.879135,43.6344991 24.050831,43.4683338 24.387131,43.4683338 C24.725779,43.4683338 24.897457,43.6344627 25.3490117,44.2467287 C25.8311139,44.8969911 26.489578,45.7893627 27.8183423,45.7893627 C29.1471066,45.7893627 29.8079066,44.8969911 30.2876729,44.2467287 C30.7415575,43.6320689 30.9132535,43.4659036 31.2495535,43.4659036 C31.5882014,43.4659036 31.7598794,43.6320324 32.2114341,44.2442985 C32.6935363,44.8945609 33.3520004,45.7869325 34.6807647,45.7869325 C36.0118168,45.7869325 36.670329,44.8945609 37.1500953,44.2442985 C37.6039799,43.6320081 37.773328,43.4659036 38.1119759,43.4659036 C38.4506239,43.4659036 38.6223019,43.6320324 39.0738566,44.2442985 C39.5559588,44.8945609 40.2144229,45.7869325 41.5455351,45.7869325 C42.8742392,45.7869325 43.5350994,44.8945609 44.0148657,44.2442985 C44.4687503,43.6296387 44.6404463,43.4634734 44.9767463,43.4634734 C45.3153943,43.4634734 45.4870723,43.6296022 45.938627,44.2418683 C46.4207292,44.8921307 47.0791933,45.7845023 48.4079576,45.7845023 C49.7390096,45.7845023 50.3975219,44.8921307 50.8796361,44.2418683 C51.3335207,43.6295779 51.5028688,43.4634734 51.8415168,43.4634734 C52.1801647,43.4634734 52.3518427,43.6296022 52.8033974,44.2442985 C53.2854996,44.8945609 53.9439637,45.7869325 55.272728,45.7869325 C56.8225014,45.7869325 57.2058208,44.5528739 57.3892627,43.9595392 C57.4386487,43.8005308 57.5209591,43.5323576 57.5656426,43.4801446 C57.5656426,43.4801446 57.6032701,43.4635317 57.7090969,43.4635317 C57.7867059,43.4635317 57.861961,43.4516656 57.9348622,43.4326796 C57.9442691,43.4303065 57.9513238,43.4326796 57.9607313,43.4303065 C57.9818966,43.4255597 57.9983588,43.4160673 58.0171726,43.4089474 C58.0477448,43.3970814 58.0783158,43.3875878 58.1065395,43.3733486 C58.1371118,43.3591094 58.1629808,43.3424965 58.1911985,43.3282567 C58.2147154,43.3140175 58.2405845,43.2974046 58.2617517,43.2831654 C58.2876202,43.2641795 58.3134892,43.2428198 58.3370068,43.219087 C58.3581721,43.200101 58.3769859,43.181115 58.3957997,43.162129 C58.416965,43.1383963 58.4381304,43.112291 58.4569429,43.0885606 C58.4734051,43.0648278 58.4898673,43.0434688 58.5063295,43.0173617 C58.5345496,42.9983757 58.5486602,42.9722698 58.5627709,42.9437933 L58.5623163,42.9441693 Z M40.2398061,38.5465294 L37.8081031,38.5465294 L37.8081031,4.22959119 C40.5572622,8.95950103 45.594899,20.8734642 40.2398061,38.5465294 Z M35.9267255,4.4786873 L35.9267255,38.5465294 L33.6337929,38.5465294 C28.3823714,21.2173383 33.1563926,9.3791976 35.9267255,4.4786873 Z M55.6038276,43.4045111 C55.5544415,43.5635195 55.4721311,43.8316927 55.4274477,43.8839057 C55.4274477,43.8839057 55.3898201,43.900518 55.2839934,43.900518 C54.9476994,43.900518 54.7760214,43.7343891 54.3221128,43.122123 C53.8400105,42.4718606 53.1815464,41.579489 51.8504342,41.579489 C50.5217301,41.579489 49.8608699,42.4718606 49.3811036,43.122123 C48.927219,43.7367828 48.755523,43.9029482 48.416875,43.9029482 C48.078227,43.9029482 47.9065491,43.7368193 47.4549944,43.1245532 C46.9728921,42.4742908 46.3144281,41.5819192 44.9856638,41.5819192 C43.6546117,41.5819192 42.9960995,42.4742908 42.5139852,43.1245532 C42.0601006,43.7368436 41.8907526,43.9029482 41.5521046,43.9029482 C41.2134566,43.9029482 41.0417787,43.7368193 40.587876,43.122123 C40.1057738,42.4718606 39.4473097,41.579489 38.1185454,41.579489 C36.7874934,41.579489 36.1289811,42.4718606 35.6492148,43.122123 C35.1953302,43.7344134 35.0259821,43.900518 34.6873342,43.900518 C34.3510402,43.900518 34.1793622,43.7343891 33.7254536,43.122123 C33.2433513,42.4718606 32.5848872,41.579489 31.256123,41.579489 C29.9250709,41.579489 29.2665587,42.4718606 28.7844444,43.122123 C28.3305598,43.7344134 28.1612117,43.900518 27.8225638,43.900518 C27.4839158,43.900518 27.3122379,43.7343891 26.8606832,43.122123 C26.3785809,42.4718606 25.7201168,41.579489 24.3913526,41.579489 C23.0603005,41.579489 22.4017883,42.4718606 21.919674,43.122123 C21.6374673,43.5065876 21.4634414,43.7154335 21.2917454,43.8174657 C21.2635241,43.2478861 21.4046281,42.1799321 21.496343,41.4869589 C21.5175089,41.335071 21.5339705,41.1950487 21.5527843,41.0526568 C23.2060486,39.7616099 25.3696027,38.2308839 31.416019,37.6565655 C31.6112127,38.3566471 31.8181642,39.0662672 32.0439476,39.7877346 C32.1685881,40.1816953 32.5307517,40.4498442 32.9399649,40.4498442 L40.9308527,40.4498442 C41.3400538,40.4498442 41.7021873,40.1816649 41.82687,39.7877346 C42.0714491,39.0140786 42.2948604,38.2522697 42.501818,37.4999387 C52.0381445,37.9959498 55.3234812,40.7251866 56.3650118,42.0542054 C55.9017234,42.4647766 55.7136037,43.048585 55.603069,43.4046101 L55.6038276,43.4045111 Z" id="Shape"></path>
                        <path d="M6.28831633,30.1357689 C6.16837776,29.9910015 5.07719082,28.7308061 3.68027551,28.7308061 C3.03356327,28.7308061 2.1093102,28.9989854 1.38264694,30.27344 L0.571276531,31.6974192 L7.59107245,31.6974192 L6.28831633,30.1357689 Z" id="Shape"></path>
                        <path d="M5.43040816,33.6765789 L4.46383163,33.5745285 C4.46383163,33.5745285 2.54247857,33.3704277 1.28902959,34.8821616 C0.393012245,35.9619628 0.127271429,37.571063 0.50119898,39.6642601 L0.816331224,41.4442037 L2.08862408,40.1721124 C2.20620867,40.0534515 4.95301388,37.2791345 5.30815776,34.6495909 L5.43040816,33.6765789 Z M2.35668878,36.8520076 C2.44370173,36.5529768 2.56834224,36.2990385 2.73531827,36.0996765 C2.79175959,36.0308531 2.85290286,35.9715196 2.91405214,35.9169372 C2.7494301,36.234954 2.55659041,36.5506134 2.3566948,36.8520197 L2.35668878,36.8520076 Z" id="Shape"></path>
                        <path d="M9.92163265,30.0902025 C10.9046449,30.0902025 11.7065633,29.2833134 11.7065633,28.2913033 C11.7065633,27.2992932 10.9069929,26.4924041 9.92163265,26.4924041 C8.93862041,26.4924041 8.13905,27.2992932 8.13905,28.2913033 C8.13905,29.2833134 8.93862041,30.0902025 9.92163265,30.0902025 Z M9.92163265,28.1916041 C9.97572181,28.1916041 10.0204035,28.2366954 10.0204035,28.291279 C10.0204035,28.4004499 9.8252098,28.4004499 9.8252098,28.291279 C9.8252098,28.2366942 9.86754109,28.1916041 9.92163265,28.1916041 Z" id="Shape"></path>
                    </g>
                </g>
            </g>
        </g>
    </g>
</svg>