<?xml version="1.0" encoding="UTF-8"?>
<svg width="52px" height="33px" viewBox="0 0 52 33" version="1.1" xmlns="http://www.w3.org/2000/svg" xmlns:xlink="http://www.w3.org/1999/xlink">
    <g id="GoSurf-Homepage" stroke="none" stroke-width="1" fill="none" fill-rule="evenodd">
        <g id="Go-Surf" transform="translate(-58.000000, -500.000000)" fill="#FFFFFF" fill-rule="nonzero" stroke="#222532" stroke-width="0.6">
            <g id="Hero" transform="translate(-14.000000, -770.000000)">
                <g id="Navigation" transform="translate(68.000000, 1168.000000)">
                    <g id="Travel" transform="translate(5.000000, 103.000000)">
                        <path d="M48.75,24.0226302 L48.75,21.2761406 C48.75,19.8149714 48.529295,18.4020937 48.12305,17.0684818 L48.1660185,17.0684818 L47.8671885,16.3011589 C47.841798,16.2315813 47.8124985,16.1639333 47.7871085,16.0924211 L47.7734365,16.0595635 C47.7714835,16.0556982 47.76953,16.0518323 47.767577,16.047967 C46.804677,13.572079 45.179677,11.4208733 43.107427,9.80715974 L42.902347,9.64867302 C40.425797,7.78741521 37.341847,6.67992302 33.997847,6.67992302 L28.749847,6.68185568 L28.749847,5.15497807 C33.136547,5.05447599 36.952847,4.77228641 40.034847,4.32773589 L42.454747,6.10393901 C42.767247,6.33393797 43.128597,6.44990724 43.491847,6.44990724 C43.759427,6.44990724 44.028947,6.38612365 44.284797,6.25856141 C44.888297,5.95704526 45.247697,5.37916818 45.247697,4.71040776 L45.247697,3.20861609 C45.987947,2.96894891 46.612947,2.70996505 47.114897,2.43164474 C47.417632,2.26349474 47.564117,1.90978797 47.468412,1.57926714 C47.372707,1.24876115 47.054352,1.02841557 46.710612,1.04197286 C43.230162,1.21012286 40.546612,1.23911766 36.189112,1.23911766 L36.187159,1.23911766 L29.749659,1.237185 C28.579759,1.237185 27.341459,1.24298346 26.054359,1.24684878 C24.667659,1.25264724 23.224259,1.25651255 21.755509,1.25651255 C14.845509,1.25651255 7.107009,1.13861359 2.130509,0.257280781 C1.806289,0.199296146 1.485959,0.357782865 1.333609,0.643836771 C1.181264,0.931820365 1.235954,1.2836024 1.468374,1.51165188 C3.028924,3.05594615 8.185374,4.12865448 14.270874,4.70266229 L14.270874,6.6760399 L8.501374,6.67990521 C5.054124,6.67990521 2.249374,9.45538958 2.249374,12.8667802 L2.249374,23.9976135 L1.501324,23.9976135 C0.811874,23.9976135 0.249374,24.5523245 0.249374,25.2365224 L0.249374,26.224176 C0.249374,26.9064443 0.809924,27.4630849 1.501324,27.4630849 L2.249374,27.4611522 L6.063824,27.4611522 C6.425154,29.6992929 8.386074,31.4194856 10.749374,31.4194856 C13.112674,31.4194856 15.071624,29.7012226 15.434924,27.4611522 L32.815924,27.4611522 C33.177254,29.7012226 35.136224,31.4194856 37.499524,31.4194856 C39.862824,31.4194856 41.821774,29.7012226 42.185074,27.4611522 L48.749574,27.4611522 L48.749574,27.4360262 C49.319874,27.320057 49.749574,26.821396 49.749574,26.2222528 L49.749574,25.2345991 C49.749574,24.6393153 49.319884,24.1387346 48.749574,24.0227554 L48.75,24.0226302 Z M45.93165,15.5859375 L35.00015,15.5859375 C34.865385,15.5859375 34.75015,15.4719029 34.75015,15.3385417 L34.75015,11.3802083 C34.75015,11.2468471 34.865385,11.1328125 35.00015,11.1328125 L42.37915,11.1328125 C43.8811,12.3504453 45.09205,13.8715833 45.9319,15.5859375 L45.93165,15.5859375 Z M43.75,4.71041667 C43.75,4.81285339 43.705078,4.88630026 43.61133,4.93268698 C43.517582,4.9790737 43.433595,4.97134258 43.34961,4.90949362 L42.09181,3.98754831 C42.68166,3.87544831 43.23441,3.75561471 43.75001,3.62998216 L43.75,4.71041667 Z M21.758,2.74282812 C23.2287,2.74282812 24.67205,2.73702966 26.06075,2.73316435 C27.3459,2.72736589 28.58225,2.72350008 29.7502,2.72350008 L36.1897,2.72929854 L36.191653,2.72929854 C37.918203,2.72929854 39.385003,2.72350008 40.742453,2.70803784 C36.760053,3.34780346 31.273453,3.71112898 25.000453,3.71112898 C18.174453,3.71112898 12.371453,3.17769409 8.336453,2.42387898 C12.537603,2.69253602 17.318953,2.74278706 21.758453,2.74278706 L21.758,2.74282812 Z M15.7715,4.83604427 C18.78125,5.07377682 21.957,5.1955401 25,5.1955401 C25.76365,5.1955401 26.51365,5.18974164 27.25,5.18007786 L27.25,6.67989036 L15.7715,6.67989036 L15.7715,4.83604427 Z M10.75,29.9353411 C8.95705,29.9353411 7.5,28.4934688 7.5,26.7191953 C7.5,24.9449219 8.95705,23.5030495 10.75,23.5030495 C12.54295,23.5030495 14,24.9449219 14,26.7191953 C14,28.4934688 12.54295,29.9353411 10.75,29.9353411 Z M37.5,29.9353411 C35.70705,29.9353411 34.25,28.4934688 34.25,26.7191953 C34.25,24.9449219 35.70705,23.5030495 37.5,23.5030495 C39.29295,23.5030495 40.75,24.9449219 40.75,26.7191953 C40.75,28.4934688 39.29295,29.9353411 37.5,29.9353411 Z M42.18555,25.9770078 C41.82422,23.7369375 39.8633,22.0186745 37.5,22.0186745 C35.1367,22.0186745 33.17775,23.7369375 32.81445,25.9770078 L15.43545,25.9770078 C15.07412,23.7369375 13.1132,22.0186745 10.7499,22.0186745 C8.3866,22.0186745 6.42765,23.7369375 6.06435,25.9770078 L1.7499,25.9770078 L1.7499,25.4822161 L4.7499,25.4822161 L4.7499,23.9978411 L3.7499,23.9978411 L3.7499,17.0707578 L11.2849,17.0707578 L11.2849,15.5863828 L3.7499,15.5863828 L3.7499,12.8669583 C3.7499,10.2750911 5.88075,8.16450781 8.50185,8.16450781 L33.99785,8.16450781 C36.20095,8.16450781 38.28105,8.70373177 40.11135,9.64888281 L34.99985,9.64888281 C34.035,9.64888281 33.24985,10.4258542 33.24985,11.3806536 L33.24985,15.338987 C33.24985,16.2937865 34.035,17.0707578 34.99985,17.0707578 L46.54685,17.0707578 C46.999975,18.3927917 47.24995,19.8056198 47.24995,21.2784167 L47.24995,23.9978411 L43.74995,23.9978411 L43.74995,25.4822161 L48.24995,25.4822161 L48.24995,25.9770078 L42.18555,25.9770078 Z" id="Shape"></path>
                        <path d="M22.75,15.3385417 L22.75,11.3802083 C22.75,10.4254089 21.96485,9.6484375 21,9.6484375 L16,9.6484375 C15.03515,9.6484375 14.25,10.4254089 14.25,11.3802083 L14.25,15.3385417 C14.25,16.2933411 15.03515,17.0703125 16,17.0703125 L21,17.0703125 C21.96485,17.0703125 22.75,16.2933411 22.75,15.3385417 Z M15.75,15.3385417 L15.75,11.3802083 C15.75,11.2468471 15.865235,11.1328125 16,11.1328125 L21,11.1328125 C21.134765,11.1328125 21.25,11.2468471 21.25,11.3802083 L21.25,15.3385417 C21.25,15.4719029 21.134765,15.5859375 21,15.5859375 L16,15.5859375 C15.865235,15.5859375 15.75,15.4738375 15.75,15.3385417 Z" id="Shape"></path>
                        <path d="M30.5,9.6484375 L25.5,9.6484375 C24.53515,9.6484375 23.75,10.4254089 23.75,11.3802083 L23.75,15.3385417 C23.75,16.2933411 24.53515,17.0703125 25.5,17.0703125 L30.5,17.0703125 C31.46485,17.0703125 32.25,16.2933411 32.25,15.3385417 L32.25,11.3802083 C32.25,10.4254089 31.46485,9.6484375 30.5,9.6484375 Z M30.75,15.3385417 C30.75,15.4719029 30.634765,15.5859375 30.5,15.5859375 L25.5,15.5859375 C25.365235,15.5859375 25.25,15.4719029 25.25,15.3385417 L25.25,11.3802083 C25.25,11.2468471 25.365235,11.1328125 25.5,11.1328125 L30.5,11.1328125 C30.634765,11.1328125 30.75,11.2468471 30.75,11.3802083 L30.75,15.3385417 Z" id="Shape"></path>
                        <path d="M37.5,24.7395833 C36.3965,24.7395833 35.5,25.6267448 35.5,26.71875 C35.5,27.8107552 36.3965,28.6979167 37.5,28.6979167 C38.6035,28.6979167 39.5,27.8107552 39.5,26.71875 C39.5,25.6286745 38.6035,24.7395833 37.5,24.7395833 Z M37.5,27.2135417 C37.22461,27.2135417 37,26.9912714 37,26.71875 C37,26.4462286 37.22461,26.2239583 37.5,26.2239583 C37.77539,26.2239583 38,26.4462286 38,26.71875 C38,26.9912714 37.77539,27.2135417 37.5,27.2135417 Z" id="Shape"></path>
                        <path d="M10.75,24.7395833 C9.6465,24.7395833 8.75,25.6267448 8.75,26.71875 C8.75,27.8088255 9.6465,28.6979167 10.75,28.6979167 C11.8535,28.6979167 12.75,27.8107552 12.75,26.71875 C12.75,25.6286745 11.8535,24.7395833 10.75,24.7395833 Z M10.75,27.2135417 C10.47461,27.2135417 10.25,26.9912714 10.25,26.71875 C10.25,26.4462286 10.47461,26.2239583 10.75,26.2239583 C11.02539,26.2239583 11.25,26.4462286 11.25,26.71875 C11.25,26.9912714 11.02539,27.2135417 10.75,27.2135417 Z" id="Shape"></path>
                        <polygon id="Shape" points="16.25 23.9973958 31.75 23.9973958 31.75 25.4817708 16.25 25.4817708"></polygon>
                    </g>
                </g>
            </g>
        </g>
    </g>
</svg>