<?xml version="1.0" encoding="UTF-8"?>
<svg width="40px" height="25px" viewBox="0 0 40 25" version="1.1" xmlns="http://www.w3.org/2000/svg" xmlns:xlink="http://www.w3.org/1999/xlink">
    <!-- Generator: Sketch 52.2 (67145) - http://www.bohemiancoding.com/sketch -->
    <title>Surf</title>
    <desc>Created with Sketch.</desc>
    <g id="GoSurf-Homepage" stroke="none" stroke-width="1" fill="none" fill-rule="evenodd">
        <g id="Go-Surf" transform="translate(-1094.000000, -1773.000000)" fill="#4AF6CD" fill-rule="nonzero">
            <g id="Surf" transform="translate(-49.000000, 1024.000000)">
                <g id="Map" transform="translate(128.000000, 367.000000)">
                    <g id="Pensacola-Beach" transform="translate(976.000000, 265.000000)">
                        <g id="Surf" transform="translate(39.000000, 117.000000)">
                            <path d="M26.3578723,4.75404255 C26.4459702,4.67425532 26.5340681,4.59613191 26.6205064,4.51800426 C26.7950426,4.36341702 26.9645872,4.20550213 27.1308043,4.0492383 C27.2920426,3.88301702 27.4832,3.77330638 27.6511021,3.63201702 C27.8239745,3.49737447 27.9902,3.35774894 28.1597404,3.23308085 C28.5104723,3.00868085 28.8362511,2.76099574 29.1670596,2.57150638 C29.4978426,2.387 29.8053574,2.18420426 30.1112298,2.04622979 C30.2624936,1.96810638 30.4071064,1.89330213 30.5450596,1.82182979 C30.6880128,1.75866383 30.8243149,1.6971617 30.9539702,1.64064681 C31.4742681,1.39962128 31.9047787,1.25334468 32.2006511,1.14528511 C32.4981915,1.0488766 32.6577574,0.999008511 32.6577574,0.999008511 L32.6727174,0.994022128 C32.7259089,0.977399574 32.7707898,0.934179574 32.7890749,0.877664681 C32.8189949,0.782915745 32.7658034,0.68152 32.6727174,0.651600851 C32.6727174,0.651600851 32.493194,0.595085957 32.1640791,0.535243404 C31.9995174,0.50864766 31.7917387,0.468754043 31.5507174,0.45379234 C31.3080323,0.433845532 31.0254409,0.403924255 30.7112706,0.413898723 C30.55336,0.415560851 30.3854749,0.412236596 30.2109302,0.422210213 C30.036394,0.437170213 29.8535515,0.45379234 29.6640366,0.472078298 C29.2783983,0.498674043 28.8744621,0.586771915 28.433994,0.676533617 C28.209594,0.713102553 27.9918238,0.782916596 27.7641217,0.852729362 C27.5347345,0.924205957 27.2986749,0.997342128 27.0576536,1.07214213 C26.5955685,1.26662298 26.0902494,1.45944426 25.5982068,1.72205702 C25.3555217,1.85835915 25.1062068,1.99964851 24.8551855,2.15090809 C24.7288536,2.22570809 24.602526,2.30217191 24.4745345,2.37863574 C24.3548536,2.46673362 24.2335089,2.55483149 24.1121685,2.64292936 C23.871143,2.82743574 23.6251472,3.01360596 23.374126,3.20309957 C23.1148153,3.38594638 22.9086791,3.62364426 22.6710196,3.84139745 C22.4399685,4.06746128 22.2055728,4.29518468 21.9695728,4.52624851 C21.7584706,4.77724426 21.5473643,5.03322723 21.3395728,5.29752511 C21.1351174,5.56348255 20.9123813,5.82612085 20.7228919,6.10867404 C20.5417089,6.39624 20.3705004,6.69378043 20.1926366,6.99131234 C20.0247515,7.29549957 19.8369174,7.58637617 19.6873174,7.90884426 C19.5410409,8.23796766 19.4047387,8.57373787 19.2667728,8.91118468 C19.1288068,9.24695489 18.9908409,9.58603574 18.8628494,9.9268017 C18.7747515,10.2426272 18.6849898,10.5617804 18.5952281,10.8809294 C18.5054664,11.2000783 18.4157047,11.5208868 18.3259472,11.8416953 L18.1746834,12.3702911 L18.0566664,12.80744 C18.0151106,12.9537166 17.9818664,13.101657 17.9353217,13.2462485 L17.7774111,13.6701166 L17.6195004,14.0973081 C17.5646451,14.2385974 17.4948323,14.3715762 17.4333302,14.511206 C16.9280111,15.6132485 16.2597983,16.6405251 15.4586068,17.5480996 C14.6557557,18.4540145 13.7432026,19.2568655 12.7657983,19.92844 C11.7900536,20.6049506 10.7577983,21.1485251 9.74384085,21.6056315 C8.72656426,22.0594187 7.72256426,22.4118017 6.77673447,22.6877591 C4.88345787,23.2446102 3.2345217,23.5006102 2.08098979,23.6501847 C0.922394043,23.7947974 0.257500426,23.8047719 0.257500426,23.8047719 C0.172725957,23.806434 0.0995897872,23.8695974 0.0879514894,23.9560357 C0.0763161702,24.0507847 0.142806809,24.1388826 0.239215319,24.1505166 L0.242539574,24.1505166 C0.242539574,24.1505166 0.922411915,24.2369506 2.11253957,24.2618868 C2.7076034,24.2751847 3.43236936,24.2685357 4.26513532,24.217006 C5.0962417,24.1654783 6.03709277,24.0823634 7.05602894,23.9111549 C9.08726298,23.5687336 11.4777311,22.9487294 13.8313481,21.6688145 C15.00488,21.0321762 16.1684545,20.2326443 17.2056885,19.2352826 C18.2462417,18.2462613 19.1687949,17.0760485 19.9001566,15.7911123 C19.9915779,15.629874 20.091314,15.4736272 20.1760885,15.3090698 L20.4204374,14.8137081 C20.5849991,14.4829251 20.7445736,14.1488145 20.8775438,13.8080485 L21.0869864,13.2977506 L21.138514,13.1697591 L21.1651098,13.1065932 L21.1717587,13.0899711 C21.1933681,13.0251455 21.1484877,13.1597838 21.1551366,13.1414987 L21.1667723,13.1132409 L21.2648447,12.8821898 C21.3978234,12.5763387 21.5291383,12.2704877 21.6604574,11.9663174 C21.7917766,11.6621472 21.9230915,11.359594 22.0544064,11.0570834 C22.2023468,10.8044238 22.3386489,10.5517643 22.4732915,10.3007855 C22.607934,10.0497898 22.7442362,9.80210468 22.8655809,9.54946638 C23.0035468,9.30179404 23.1681085,9.06244511 23.3127298,8.81976426 C23.4573426,8.57541532 23.6019596,8.33440255 23.7365979,8.09006213 C23.8861979,7.85734723 24.0507596,7.64125362 24.2003426,7.41687064 C24.3565936,7.19579404 24.4962191,6.96640255 24.6474915,6.74865787 C24.8120532,6.54420255 24.9732872,6.34141106 25.1328532,6.14193447 C25.2126404,6.04053872 25.2907638,5.94080255 25.3705511,5.84107064 C25.4470149,5.73801106 25.5251383,5.63827915 25.6132362,5.55350468 C25.7844447,5.3723217 25.952334,5.19446213 26.1185553,5.01827064 C26.1966787,4.9318366 26.2781298,4.84207489 26.357917,4.75397702 L26.3578723,4.75404255 Z" id="Shape"></path>
                            <path d="M39.8370213,23.8731915 C39.8370213,23.8731915 39.4663447,23.7352255 38.8297021,23.450983 C38.512217,23.3096936 38.1299149,23.1334979 37.694383,22.9223872 C37.2605532,22.7129447 36.7768511,22.4636213 36.2598723,22.1777064 C36.0038894,22.029766 35.7345957,21.8818298 35.462,21.7189404 C35.1927191,21.5510553 34.9151064,21.378183 34.629234,21.2003021 C34.3516426,21.0141319 34.0657447,20.8213149 33.7748511,20.6234936 C33.4939319,20.4157149 33.206383,20.2029489 32.9154894,19.9868553 C32.6378979,19.7574681 32.3569787,19.5231106 32.0727234,19.2870681 C31.8034426,19.0377319 31.5325106,18.7850681 31.2598723,18.5307702 C31.0088766,18.2598255 30.7562128,17.9872383 30.5019149,17.7129404 C30.2791745,17.4220511 30.0564255,17.1294936 29.8320426,16.8369404 L29.5511234,16.3714936 L29.4114979,16.1421064 L29.3433447,16.0257489 L29.3400204,16.0191 L29.3366957,16.0141132 L29.3067757,15.94596 L29.0607672,15.4024281 C28.9859672,15.2262323 28.8762609,15.0267643 28.8529885,14.8837898 C28.7732013,14.5696281 28.6585077,14.2920451 28.611963,13.9662579 C28.582043,13.8100068 28.548797,13.6554196 28.5122268,13.5041728 C28.4972668,13.3545728 28.4839689,13.2049728 28.4690098,13.0570238 C28.4590362,12.9838834 28.4440762,12.9107472 28.4407519,12.8392706 C28.4440762,12.767794 28.442414,12.6979813 28.442414,12.6281685 C28.4474004,12.4902026 28.4241294,12.3455898 28.4357651,12.2126111 C28.4540498,12.0812962 28.4606983,11.9483174 28.4706719,11.8169983 C28.4690098,11.6823557 28.5188762,11.5676621 28.5388251,11.4413345 C28.6452081,10.950994 28.8347017,10.4988664 29.1106549,10.138143 C29.2286719,9.93535149 29.3998847,9.79738553 29.5428251,9.62618553 C29.7090464,9.49487064 29.8652974,9.34027915 30.0381868,9.23722383 C30.212723,9.14081532 30.373957,9.01116 30.5468251,8.95796851 C30.7147102,8.88981532 30.8759485,8.79340681 31.0305272,8.76847489 C31.1834549,8.73190553 31.3280677,8.68536426 31.4543953,8.65045787 C31.5807272,8.63549787 31.6920932,8.62386213 31.7835187,8.60724085 C31.9730123,8.57898298 32.0744081,8.56402383 32.0744081,8.56402383 L32.0910302,8.56069957 C32.1275996,8.55571277 32.160843,8.53410383 32.1807919,8.49919745 C32.2156987,8.43935915 32.1957519,8.36289532 32.1359111,8.32798894 C32.1359111,8.32798894 32.0444898,8.27646128 31.861643,8.18503574 C31.7702217,8.13849106 31.6538643,8.08529957 31.5125749,8.02379745 C31.3696217,7.98224128 31.2017366,7.93569957 31.0055962,7.89414213 C30.618294,7.81601872 30.1129579,7.78443574 29.5411706,7.89912894 C29.3915706,7.91408894 29.2519409,7.9656183 29.1040217,8.01548638 C28.9560813,8.06701404 28.7981706,8.11355872 28.6452557,8.18170766 C28.356026,8.34294596 28.0202345,8.49088213 27.74266,8.74187787 C27.4318217,8.96295447 27.1808302,9.26383532 26.9132132,9.57796298 C26.7902089,9.74086085 26.6921366,9.92370766 26.5791026,10.1048991 C26.5275749,10.1963204 26.4644089,10.287746 26.4211919,10.3841545 L26.3015111,10.6833545 C26.2316983,10.886146 26.1236515,11.0922651 26.0854217,11.3083757 C26.0405409,11.5244651 25.9906728,11.7438651 25.9541068,11.9682906 C25.9191996,12.1910311 25.9258485,12.4154396 25.9158753,12.6431417 L25.9125506,12.985563 C25.9191996,13.0985928 25.9391464,13.2083034 25.9507821,13.3213332 C25.9873511,13.5440736 26.0222587,13.7684821 26.0588289,13.9945247 C26.1136843,14.2122779 26.1884843,14.4250353 26.258297,14.6394609 C26.3729906,15.0716311 26.620663,15.4921843 26.8217864,15.9094183 C26.9265055,16.1388055 27.0378757,16.2701247 27.1459226,16.4446523 L27.4717183,16.9449928 L27.513274,17.0081587 L27.5182609,17.0164698 C27.5764396,17.1145421 27.5382077,17.0480523 27.5515055,17.0713251 L27.5648034,17.0879472 L27.589737,17.1195298 L27.6927966,17.2491851 L27.8939285,17.5084957 L28.2978519,18.0254319 C28.5887413,18.3462447 28.8895966,18.6537723 29.1821498,18.9629213 C29.4996349,19.2405128 29.8154689,19.5197723 30.1296391,19.7940277 C30.462086,20.0433638 30.7845753,20.2943681 31.1136817,20.5270915 C31.4527753,20.7415213 31.7852136,20.954283 32.1143626,21.1637298 C32.4517966,21.3532234 32.7825753,21.5393936 33.106703,21.7205809 C33.437486,21.8851426 33.7632987,22.044717 34.0791285,22.2009638 C34.3999413,22.3422532 34.7124477,22.4768957 35.0149583,22.6098745 C35.3191455,22.7362064 35.616703,22.8475723 35.8992562,22.9589426 C37.039554,23.386134 38.0052987,23.6803468 38.6901498,23.8515809 C39.3733413,24.026117 39.7706179,24.1025766 39.7706179,24.1025766 C39.8287966,24.1125498 39.8869753,24.0809677 39.9085838,24.0261128 C39.9335174,23.9662702 39.9002728,23.8964574 39.8371072,23.8731851 L39.8370213,23.8731915 Z M29.3182979,15.9825532 C29.3216221,15.9858774 29.31996,15.9858774 29.31996,15.9842153 C29.3216221,15.9875396 29.3266089,15.9958511 29.3299332,16.0008374 L29.3266089,15.9975132 L29.3182979,15.9825532 Z" id="Shape"></path>
                            <path d="M31.4876596,2.85234043 C30.7064255,3.01357872 30.2127234,3.21803404 30.2127234,3.21803404 C30.1811409,3.23133191 30.1562085,3.26291489 30.1562085,3.29948511 C30.154546,3.34768936 30.1944396,3.38758298 30.2426426,3.38758298 C30.2443051,3.38758298 30.7595787,3.39090723 31.5192383,3.47900426 C31.8982298,3.51557362 32.3337489,3.59203404 32.7925149,3.67182128 C33.2496213,3.77488085 33.7333234,3.86796596 34.1971106,4.01424255 C34.3134681,4.05413617 34.4298255,4.08571915 34.5428553,4.12893617 C34.6542255,4.17880426 34.7639319,4.22700851 34.8736383,4.27521277 C35.0930511,4.3699617 35.2991702,4.47468085 35.5069574,4.54615745 C35.7180596,4.6093234 35.9225149,4.66417447 36.1236383,4.70074468 C36.3297574,4.73398936 36.5258979,4.76557021 36.7070851,4.79382979 C36.8915915,4.82208766 37.0711149,4.83206128 37.2340213,4.84037447 C37.3919319,4.8569966 37.5382085,4.86697021 37.6628723,4.86697021 C37.9138681,4.87195702 38.0800936,4.85367234 38.0800936,4.85367234 L38.0867426,4.85201021 C38.095054,4.85034809 38.1017026,4.84868553 38.110014,4.8470234 C38.1665289,4.8270766 38.1947885,4.76391277 38.1748396,4.70739787 C38.1748396,4.70739787 38.1199843,4.55613404 37.985346,4.33339362 C37.9188566,4.2187 37.8290949,4.09070851 37.7177247,3.94775532 C37.6046949,3.80978936 37.4634013,3.67348723 37.3021672,3.53219787 C37.22238,3.45905745 37.1342821,3.38924468 37.0428566,3.31943191 C36.9464481,3.25959362 36.8500396,3.19144043 36.7436566,3.1332617 C36.5375374,3.00527021 36.3065077,2.8905766 36.0538268,2.8224234 C35.8028311,2.74595957 35.5335289,2.70606596 35.257614,2.69443191 C34.983346,2.66949872 34.7074013,2.65786298 34.433146,2.64456383 C34.1605417,2.61963021 33.8879545,2.62295447 33.621997,2.61796809 C33.3560396,2.61131915 33.0934013,2.63791489 32.8424226,2.65121277 C32.589763,2.68113277 32.3504226,2.69442979 32.1226779,2.73598723 C31.896614,2.7742183 31.6838694,2.81078723 31.4876991,2.85234468 L31.4876596,2.85234043 Z" id="Shape"></path>
                            <path d="M37.1093617,9.00255319 C37.275583,9.07735319 37.4052383,9.16046383 37.5348936,9.22030638 C37.7725915,9.35328511 37.938817,9.43307234 37.938817,9.43307234 L37.9487906,9.43805915 C37.9620885,9.44470766 37.9770485,9.44803234 37.9936715,9.44803234 C38.046863,9.44637021 38.09008,9.40148766 38.09008,9.3466366 C38.09008,9.3466366 38.0884174,9.30175574 38.0867553,9.21864511 C38.0817689,9.13553447 38.0767821,9.01086638 38.0435383,8.85960255 C38.0069689,8.71166213 37.9620872,8.52383234 37.870666,8.33100681 C37.7892149,8.12821532 37.6662106,7.9204366 37.5132872,7.70598553 C37.4351638,7.60126638 37.347066,7.4948834 37.2556404,7.38850043 C37.1575681,7.29042809 37.0594957,7.1807217 36.9481255,7.08431319 C36.7287128,6.88650894 36.4760404,6.70366213 36.1951468,6.5590366 C35.9142277,6.4160834 35.6050617,6.31136426 35.2908915,6.23324085 C34.9767298,6.14846638 34.6592319,6.08197702 34.3467213,6.00884085 C33.7217,5.86422809 33.0967213,5.76283234 32.5099553,5.71628766 C31.9248489,5.66143234 31.3779553,5.65146213 30.9108915,5.65644936 C29.9783809,5.66808468 29.3650191,5.76116851 29.3650191,5.76116851 C29.3284502,5.76615532 29.2985298,5.79441362 29.2902191,5.83098128 C29.2819081,5.87918553 29.3118281,5.92573021 29.3600319,5.93404085 C29.3600319,5.93404085 29.960117,6.04873447 30.836117,6.27978553 C31.273266,6.39281957 31.7769255,6.54075574 32.3055213,6.71527489 C32.5698149,6.80004936 32.8374362,6.90310894 33.1100319,6.99951745 C33.3793128,7.09925362 33.6502447,7.20896 33.912883,7.32697702 C34.175517,7.44665787 34.4298191,7.58296 34.6642021,7.73256 C34.9019,7.88050043 35.1229681,8.03176 35.345734,8.15476851 C35.5684745,8.27611319 35.782883,8.38249617 35.9973085,8.47558128 C36.2084106,8.57365362 36.4078787,8.66673872 36.5923723,8.75317277 C36.781866,8.84293447 36.9564021,8.92770894 37.1093085,9.00250894 L37.1093617,9.00255319 Z" id="Shape"></path>
                            <path d="M36.1817021,11.0889362 C36.1185362,10.9576213 36.0287745,10.8346128 35.9290426,10.7032979 C35.8309702,10.5703191 35.7046426,10.4639362 35.5650128,10.3625404 C35.4253872,10.2628085 35.2558383,10.202966 35.0879489,10.1381404 C34.9184,10.0816255 34.7471915,10.0267702 34.5826298,9.96526809 C34.250183,9.85389787 33.9193957,9.74751489 33.6019064,9.691 C33.2877447,9.62118723 32.9885447,9.58960426 32.7358638,9.56300851 C32.2305447,9.51148085 31.8881191,9.53308851 31.8881191,9.53308851 C31.8631855,9.53475064 31.8399149,9.54971064 31.826617,9.57464426 C31.8099945,9.61121362 31.8249545,9.65443149 31.8615238,9.67105277 C31.8615238,9.67105277 32.1623877,9.81234213 32.5945877,10.038406 C32.8090174,10.156423 33.0533536,10.2977166 33.3093536,10.4523038 C33.4340217,10.5320911 33.563677,10.6135421 33.6933281,10.6949889 C33.824643,10.7747762 33.9493111,10.8678613 34.075643,10.9542996 C34.1969877,11.0473847 34.3133409,11.1487804 34.4197238,11.2534996 C34.51946,11.3648698 34.6275026,11.4612783 34.7305621,11.5443889 C34.8319579,11.6274996 34.9549621,11.6823549 35.0646728,11.7388698 C35.1727196,11.7970485 35.2907366,11.8386017 35.3987834,11.881823 C35.501843,11.9267038 35.608226,11.963274 35.7112855,11.9931932 C35.8143451,12.0231132 35.8957919,12.0580187 35.977243,12.0796272 C36.1368174,12.1278315 36.2531749,12.1477804 36.2531749,12.1477804 L36.2581617,12.1494426 C36.3096894,12.1594162 36.3595574,12.1245094 36.3695319,12.0729787 C36.3695319,12.0729787 36.3894787,11.9632723 36.377843,11.7820894 C36.371194,11.6923277 36.3612209,11.577634 36.3279749,11.4629404 C36.2930677,11.3482468 36.2465238,11.2219149 36.1816983,11.0889362 L36.1817021,11.0889362 Z" id="Shape"></path>
                        </g>
                    </g>
                </g>
            </g>
        </g>
    </g>
</svg>