<?xml version="1.0" encoding="UTF-8"?>
<svg width="19px" height="25px" viewBox="0 0 19 25" version="1.1" xmlns="http://www.w3.org/2000/svg" xmlns:xlink="http://www.w3.org/1999/xlink">
    <!-- Generator: Sketch 52.2 (67145) - http://www.bohemiancoding.com/sketch -->
    <title>Water</title>
    <desc>Created with Sketch.</desc>
    <g id="GoSurf-Homepage" stroke="none" stroke-width="1" fill="none" fill-rule="evenodd">
        <g id="Go-Surf" transform="translate(-1187.000000, -1773.000000)" fill="#4AF6CD" fill-rule="nonzero" stroke="#4AF6CD" stroke-width="0.5">
            <g id="Surf" transform="translate(-49.000000, 1024.000000)">
                <g id="Map" transform="translate(128.000000, 367.000000)">
                    <g id="Pensacola-Beach" transform="translate(976.000000, 265.000000)">
                        <g id="Water" transform="translate(132.000000, 117.000000)">
                            <path d="M5.248,15.744 C3.7597,15.744 2.5488,14.53305 2.5488,13.0448 C2.5488,12.728395 2.80661,12.4706 3.123,12.4706 C3.439405,12.4706 3.6972,12.72841 3.6972,13.0448 C3.6972,13.90025 4.39445,14.59755 5.24995,14.59755 C6.10545,14.59755 6.8027,13.9003 6.8027,13.0448 C6.8027,12.728395 7.06051,12.4706 7.3769,12.4706 C7.693305,12.4706 7.9511,12.72841 7.9511,13.0448 C7.9471935,14.5331 6.73625,15.744 5.248,15.744 Z" id="Shape"></path>
                            <path d="M9.5,15.744 C8.0117,15.744 6.8008,14.53305 6.8008,13.0448 C6.8008,12.728395 7.058615,12.4706 7.375,12.4706 C7.691385,12.4706 7.9492,12.72841 7.9492,13.0448 C7.9492,13.90025 8.64645,14.59755 9.50195,14.59755 C10.3574,14.59755 11.0547,13.9003 11.0547,13.0448 C11.0547,12.728395 11.31251,12.4706 11.6289,12.4706 C11.945305,12.4706 12.2031,12.72841 12.2031,13.0448 C12.199194,14.5331 10.98825,15.744 9.5,15.744 Z" id="Shape"></path>
                            <path d="M13.752,15.744 C12.2637,15.744 11.0528,14.53305 11.0528,13.0448 C11.0528,12.728395 11.31061,12.4706 11.627,12.4706 C11.943405,12.4706 12.2012,12.72841 12.2012,13.0448 C12.2012,13.90025 12.89845,14.59755 13.75395,14.59755 C14.6094,14.59755 15.3067,13.9003 15.3067,13.0448 C15.3067,12.728395 15.56451,12.4706 15.8809,12.4706 C16.197305,12.4706 16.4551,12.72841 16.4551,13.0448 C16.451194,14.5331 15.24025,15.744 13.752,15.744 Z" id="Shape"></path>
                            <path d="M9.5,24.1465 C4.494,24.1465 0.422,20.07425 0.422,15.0685 C0.422,7.592 8.7835,0.752 9.141,0.465 C9.357795,0.28922 9.67225,0.29508 9.88125,0.480625 C10.23672,0.79508 18.58025,8.236625 18.58025,15.068625 C18.578297,20.074625 14.50605,24.146625 9.50025,24.146625 L9.5,24.1465 Z M9.484375,1.6775 C7.865225,3.0974 1.568375,9.0015 1.568375,15.068 C1.568375,19.44105 5.125025,22.9975 9.497875,22.9975 C13.870725,22.9975 17.427375,19.44085 17.427375,15.068 C17.429328,9.525 11.089375,3.191 9.483875,1.6775 L9.484375,1.6775 Z" id="Shape"></path>
                        </g>
                    </g>
                </g>
            </g>
        </g>
    </g>
</svg>